<svg xmlns="http://www.w3.org/2000/svg" width="20" height="20" viewBox="0 0 20 20"><g><g><g><path fill="#0099da" d="M18.438 5.771H1.563V3.903c0-.429.35-.778.78-.778h.938v1.557h1.563V3.125h10.312v1.557h1.563V3.125h.937c.431 0 .782.35.782.778zm0 11.895c0 .43-.351.781-.782.781H2.344a.782.782 0 0 1-.781-.781V7.344h16.875zm-.782-16.104h-.937V0h-1.563v1.563H4.844V0H3.28v1.563h-.937A2.346 2.346 0 0 0 0 3.905v13.75A2.346 2.346 0 0 0 2.344 20h15.312A2.346 2.346 0 0 0 20 17.656V3.906a2.346 2.346 0 0 0-2.344-2.344z"/></g><g><path fill="#0099da" d="M2.97 8.98h1.563v1.562H2.97z"/></g><g><path fill="#0099da" d="M6.09 8.98h1.562v1.562H6.09z"/></g><g><path fill="#0099da" d="M9.22 8.98h1.563v1.562H9.22z"/></g><g><path fill="#0099da" d="M12.34 8.98h1.562v1.562H12.34z"/></g><g><path fill="#0099da" d="M15.47 8.98h1.563v1.562H15.47z"/></g><g><path fill="#0099da" d="M2.97 12.11h1.563v1.563H2.97z"/></g><g><path fill="#0099da" d="M6.09 12.11h1.562v1.563H6.09z"/></g><g><path fill="#0099da" d="M9.22 12.11h1.563v1.563H9.22z"/></g><g><path fill="#0099da" d="M12.34 12.11h1.562v1.563H12.34z"/></g><g><path fill="#0099da" d="M2.97 15.23h1.563v1.562H2.97z"/></g><g><path fill="#0099da" d="M6.09 15.23h1.562v1.562H6.09z"/></g><g><path fill="#0099da" d="M9.22 15.23h1.563v1.562H9.22z"/></g><g><path fill="#0099da" d="M12.34 15.23h1.562v1.562H12.34z"/></g><g><path fill="#0099da" d="M15.47 12.11h1.563v1.563H15.47z"/></g></g></g></svg>