<svg xmlns="http://www.w3.org/2000/svg" width="55" height="55" viewBox="0 0 55 55"><g><g><g><path fill="#1b1b1b" d="M29.17 33.092a2.72 2.72 0 0 0-3.344 0L1.831 51.724V22.472l15.021 11.662a.917.917 0 0 0 1.124-1.449L2.716 20.838l6.448-5.01v7.081a.917.917 0 0 0 1.833 0V6.413c0-.506.41-.917.917-.917H43.08c.507 0 .917.41.917.917v16.496a.916.916 0 0 0 1.833 0v-7.081l6.45 5.01-15.288 11.868a.916.916 0 1 0 1.124 1.448l15.048-11.682v29.252zM2.977 53.163l23.97-18.618a.88.88 0 0 1 1.093 0l23.975 18.618zm23.97-51.142a.879.879 0 0 1 1.093 0l2.114 1.642H24.84zm28.038 19.004a.866.866 0 0 0-.037-.186.918.918 0 0 0-.053-.158.823.823 0 0 0-.091-.14.864.864 0 0 0-.122-.142c-.015-.013-.021-.03-.037-.044l-8.815-6.846V6.413a2.75 2.75 0 0 0-2.75-2.75h-9.934L29.169.575a2.718 2.718 0 0 0-3.343 0l-3.978 3.088h-9.934a2.75 2.75 0 0 0-2.75 2.75v7.096L.35 20.356c-.016.012-.022.03-.037.043a.86.86 0 0 0-.121.142.818.818 0 0 0-.092.14.904.904 0 0 0-.052.158.869.869 0 0 0-.038.183c0 .02-.01.036-.01.055v31.17L0 55s1.896-.007 2.747-.004h49.5C53.102 54.994 55 55 55 55s-.004-2.17-.003-2.754V21.08c0-.02-.01-.036-.01-.055z"/></g><g><path fill="#1b1b1b" d="M17 12h22v1.5H17z"/></g><g><path fill="#1b1b1b" d="M17 16h22v1.5H17z"/></g><g><path fill="#1b1b1b" d="M17 20h22v1.5H17z"/></g></g></g></svg>