<svg xmlns="http://www.w3.org/2000/svg" width="16" height="16" viewBox="0 0 16 16"><g><g><g><path fill="#00b0f0" d="M0 5.779v8.812c0 .26.21.469.469.469h.937V5.31H.47A.469.469 0 0 0 0 5.779z"/></g><g><path fill="#00b0f0" d="M12.999 8.779a.466.466 0 0 1-.464-.469c0-.259.208-.469.464-.469s.464.21.464.469a.466.466 0 0 1-.464.469zm0 1.865a.464.464 0 1 1 0-.928.464.464 0 0 1 0 .928zm0 1.885a.466.466 0 0 1-.464-.469c0-.259.208-.469.464-.469s.464.21.464.469a.466.466 0 0 1-.464.469zm-1.87-3.75a.469.469 0 1 1 0-.938.469.469 0 0 1 0 .938zm0 1.865a.466.466 0 0 1-.469-.464c0-.256.21-.464.469-.464s.469.208.469.464-.21.464-.47.464zm0 1.885a.469.469 0 1 1 0-.938.469.469 0 0 1 0 .938zm-1.88-3.75a.466.466 0 0 1-.464-.469c0-.259.208-.469.464-.469s.464.21.464.469a.466.466 0 0 1-.464.469zm0 1.865a.464.464 0 1 1 0-.928.464.464 0 0 1 0 .928zm0 1.885a.466.466 0 0 1-.464-.469c0-.259.208-.469.464-.469s.464.21.464.469a.466.466 0 0 1-.464.469zm6.286-7.219H7.66v9.75h7.875c.259 0 .469-.21.469-.469V5.78a.469.469 0 0 0-.469-.469z"/></g><g><path fill="#00b0f0" d="M13.402.469A.469.469 0 0 0 12.934 0H3.059a.469.469 0 0 0-.469.469v3.275a2.328 2.328 0 0 1 1.156-.307H5.31c.765 0 1.445.37 1.874.938h6.22z"/></g><g><path fill="#00b0f0" d="M5.309 4.38H3.746c-.776 0-1.406.63-1.406 1.406V14.6c0 .776.63 1.406 1.406 1.406H5.31c.776 0 1.406-.63 1.406-1.406V5.786c0-.776-.63-1.406-1.406-1.406z"/></g></g></g></svg>