<svg xmlns="http://www.w3.org/2000/svg" width="16" height="16" viewBox="0 0 16 16"><g><g><path fill="#00b0f0" d="M3.71 1.5c-.598 0-1.138.568-1.615 1.07-.096.102-.19.2-.28.291-.46.458-.413 1.661.117 3.067.655 1.736 1.957 3.633 3.665 5.341 1.708 1.708 3.604 3.01 5.34 3.664 1.406.531 2.61.576 3.067.118.092-.091.19-.184.29-.28.514-.488 1.097-1.04 1.071-1.654-.017-.422-.324-.875-.912-1.348-1.76-1.415-2.252-.915-3.068-.088l-.16.162c-.39.39-1.023.304-1.883-.255-.597-.388-1.334-1.019-2.19-1.875-2.115-2.116-2.792-3.41-2.13-4.074l.16-.157c.83-.816 1.33-1.309-.086-3.069-.473-.588-.926-.895-1.348-.913H3.71z"/><path fill="none" stroke="#00b0f0" stroke-miterlimit="50" stroke-width=".5" d="M3.71 1.5c-.598 0-1.138.568-1.615 1.07-.096.102-.19.2-.28.291-.46.458-.413 1.661.117 3.067.655 1.736 1.957 3.633 3.665 5.341 1.708 1.708 3.604 3.01 5.34 3.664 1.406.531 2.61.576 3.067.118.092-.091.19-.184.29-.28.514-.488 1.097-1.04 1.071-1.654-.017-.422-.324-.875-.912-1.348-1.76-1.415-2.252-.915-3.068-.088l-.16.162c-.39.39-1.023.304-1.883-.255-.597-.388-1.334-1.019-2.19-1.875-2.115-2.116-2.792-3.41-2.13-4.074l.16-.157c.83-.816 1.33-1.309-.086-3.069-.473-.588-.926-.895-1.348-.913H3.71z"/></g></g></svg>