<svg xmlns="http://www.w3.org/2000/svg" xmlns:xlink="http://www.w3.org/1999/xlink" width="451" height="350" viewBox="0 0 451 350"><defs><path id="y1g2a" d="M1293.4 1101.58c0 17.48 2.58 35.38 6.46 52.42-16.8-33.63-25.86-70.33-25.86-107.9 0-136.71 114.66-248.1 255.61-248.1 109.06 0 206.48 68.14 241.39 167.73a262.01 262.01 0 0 0-218.54-117.93c-142.68 0-259.06 113.57-259.06 253.35zm473.93-44.31c.6-17.38-1.37-35.28-4.67-52.35 15.7 34.03 23.5 70.84 22.2 108.2-4.72 135.95-123.5 242.68-264.8 237.72-109.33-3.83-204.63-75.02-236.19-175.29 45.44 74.22 126.42 121.86 215 124.97 143.03 5.02 263.62-103.82 268.45-242.82z"/></defs><g><g clip-path="url(#clip-3EA117D7-8C60-45C4-9440-553BD3B63A4B)" opacity=".05" transform="translate(-1274 -865)"><use fill="#00b0f0" xlink:href="#y1g2a"/></g></g></svg>