<?xml version="1.0" encoding="utf-8"?>
<!-- Generator: Adobe Illustrator 23.0.3, SVG Export Plug-In . SVG Version: 6.00 Build 0)  -->
<svg version="1.1" id="Слой_1" xmlns="http://www.w3.org/2000/svg" xmlns:xlink="http://www.w3.org/1999/xlink" x="0px" y="0px"
	 viewBox="0 0 62.5 59.9" style="enable-background:new 0 0 62.5 59.9;" xml:space="preserve">
<style type="text/css">
	.st0{fill:#313131;}
	.st1{fill:#00B0F0;}
</style>
<path id="Shape" class="st0" d="M40.2,41.5v-1.1c0.3-0.2,0.6-0.5,0.9-0.8c2.3-2.5,3.7-5.7,4.1-9c2-0.3,3.9-1.4,5.1-3.1
	c1.7-2.4,1.9-5.9,0.4-10.3c-0.1-0.3-0.3-0.5-0.5-0.6l-0.7-0.4c0.1-3.9-1.3-7.8-3.8-10.8C42.6,1.8,37.7,0,31.2,0
	c-6.5,0-11.3,1.8-14.5,5.4c-2.6,3-3.9,6.8-3.8,10.8l-0.7,0.4c-0.2,0.1-0.4,0.4-0.5,0.6c-1.4,4.4-1.3,7.9,0.4,10.3
	c1.2,1.7,3.1,2.8,5.1,3.1c0.4,3.4,1.8,6.5,4.1,9c0.3,0.3,0.6,0.6,0.9,0.8v1.1C17.8,42.4-0.3,46.6,0,58.7c0,0.7,0.5,1.2,1.2,1.2h60.1
	c0.7,0,1.2-0.5,1.2-1.2C62.8,46.6,44.7,42.4,40.2,41.5z M16.6,27.9c-1-0.3-1.9-1-2.5-1.8l0.1,0c-1.2-1.7-1.3-4.3-0.2-7.8l0.9-0.6
	c0.4-0.2,0.6-0.7,0.5-1.1c-0.2-3.5,1-7,3.2-9.7c2.7-3,7-4.5,12.7-4.6c5.7,0,10,1.5,12.8,4.6c2.3,2.7,3.4,6.2,3.2,9.7
	c0,0.4,0.2,0.9,0.5,1.1l0.9,0.6c1.1,3.4,1,6.1-0.2,7.8c-0.6,0.9-1.5,1.5-2.5,1.8c1.4-1.6,2.1-3.8,1.9-5.9c-0.2-1.3-0.9-2.5-1.9-3.3
	C45.3,6.9,37.1,5.6,33.5,5.6c-0.8,0-1.5,0.1-2.3,0.2c-0.7-0.1-1.5-0.2-2.3-0.2c-3.5,0-11.8,1.3-12.4,13.1c-1,0.8-1.7,2-1.9,3.3
	C14.5,24.2,15.2,26.3,16.6,27.9z M43.5,18.3c-5,0.3-9.9-1-14.1-3.5c-0.5-0.3-1.1-0.3-1.5,0.2c-2.4,2.5-6.7,3.1-8.8,3.3
	c0.6-8.4,5.7-10.2,10-10.2c0.7,0,1.4,0.1,2,0.2c0.2,0,0.3,0,0.5,0c0.7-0.1,1.3-0.2,2-0.2C37.8,7.9,42.8,9.8,43.5,18.3L43.5,18.3z
	 M19.5,28.2L19.5,28.2c0-0.3-0.1-0.6-0.2-0.8c-1.6-1.9-2.4-3.5-2.2-4.9c0.1-0.8,0.5-1.5,1.1-2c1.6,0,7.1-0.3,10.6-3.4
	c4,2.3,8.5,3.5,13.1,3.5c0.8,0,1.6,0,2.4-0.1c0.6,0.5,1,1.2,1.1,1.9c0.2,1.4-0.5,3.1-2.2,4.9c-0.2,0.2-0.3,0.5-0.3,0.8
	c0,0,0,0.2,0,0.6l-6.9,3.7c-1.4-1.3-3.5-1.2-4.8,0.1C30,34,30,36.1,31.4,37.4c1.4,1.3,3.5,1.2,4.8-0.1c0.6-0.6,0.9-1.5,0.9-2.3
	c0-0.1,0-0.2,0-0.3l5.4-2.9c-0.5,2.3-1.6,4.5-3.2,6.2c-2.1,2-4.9,3.1-7.8,2.9H31c-2.9,0.1-5.7-0.9-7.8-2.9
	C19.4,34.3,19.5,28.2,19.5,28.2z M34.8,35c0,0.6-0.5,1.1-1.1,1.1s-1.1-0.5-1.1-1.1c0-0.6,0.5-1.1,1.1-1.1S34.8,34.4,34.8,35z
	 M30,57.4H2.4c0.9-8.9,15.4-12.6,19.9-13.5V46c0,2.7,3.3,4.7,7.8,5.1V57.4z M24.7,46L24.7,46v-4.1c2,0.9,4.1,1.4,6.3,1.3h0.6
	c2.2,0,4.3-0.4,6.3-1.3V46c0,1.1-2.6,2.7-6.6,2.7S24.7,47.1,24.7,46z M32.4,57.5v-6.4c4.5-0.3,7.8-2.4,7.8-5.1v-2.1
	c4.6,0.9,18.9,4.7,19.9,13.5H32.4z"/>
<path id="Combined-Shape" class="st1" d="M43,28.8l-0.4,3.1l-5.4,2.8c0,0.1,0,0.2,0,0.3c0,0.9-0.3,1.7-0.9,2.3
	c-1.3,1.4-3.4,1.4-4.8,0.1C30,36.1,30,34,31.3,32.6c1.3-1.4,3.4-1.4,4.8-0.1L43,28.8z M34.8,35c0-0.6-0.5-1.1-1.1-1.1
	s-1.1,0.5-1.1,1.1c0,0.6,0.5,1.1,1.1,1.1S34.8,35.5,34.8,35z"/>
</svg>
