<svg xmlns="http://www.w3.org/2000/svg" width="54" height="54" viewBox="0 0 54 54"><g><g><g><path fill="#1b1b1b" d="M.145 4.961L3.75 11.27a.9.9 0 0 0 .563.427l3.364.84 11.535 11.536 1.275-1.274L8.77 11.083a.899.899 0 0 0-.418-.237l-3.232-.81L2.05 4.66l2.632-2.632 5.376 3.073.812 3.231c.039.16.121.304.237.42l11.716 11.715 1.274-1.274L12.562 7.658l-.84-3.361a.903.903 0 0 0-.428-.565L4.986.128a.901.901 0 0 0-1.082.145L.3 3.878A.901.901 0 0 0 .145 4.96z"/></g><g><path fill="#1b1b1b" d="M37.611 17.764L17.785 37.591l-1.275-1.274L36.337 16.49z"/></g><g><path fill="#1b1b1b" d="M13.04 46.86H8.647l-2.165-3.603 2.165-3.603h4.393l2.165 3.603zm1.275-8.573a.9.9 0 0 0-.773-.437H8.135a.9.9 0 0 0-.772.437l-2.704 4.506a.901.901 0 0 0 0 .928l2.704 4.506a.901.901 0 0 0 .772.437h5.407c.317 0 .61-.166.773-.437l2.703-4.506a.901.901 0 0 0 0-.928z"/></g><g><path fill="#1b1b1b" d="M40.26 19.79L19.813 40.233a.903.903 0 0 0-.238.856 9.074 9.074 0 1 1-6.553-6.555.91.91 0 0 0 .856-.238l20.44-20.445a.9.9 0 0 0 .237-.856A8.971 8.971 0 0 1 43.801 1.82l-4.754 4.757a.9.9 0 0 0-.218.921l1.802 5.41c.09.268.301.48.57.569l5.408 1.803c.324.108.68.023.922-.218l4.754-4.755a8.968 8.968 0 0 1-11.174 9.245.902.902 0 0 0-.857.238h.005zm-3.643 9.06a2.812 2.812 0 0 0 3.966 3.96l10.116 10.122c.11.11.213.227.312.344l-7.707 7.706a5.245 5.245 0 0 1-.345-.312L32.835 40.548a2.812 2.812 0 0 0-3.966-3.96l-1.442-1.442 7.747-7.735zm10.207 23.423a5.488 5.488 0 0 1-1.92-.35l7.047-7.039a5.463 5.463 0 0 1-5.127 7.389zM43.289 21.63c5.952.02 10.794-4.789 10.814-10.741a10.78 10.78 0 0 0-.331-2.687.901.901 0 0 0-1.511-.42l-5.61 5.606-4.452-1.483-1.484-4.45 5.61-5.611a.901.901 0 0 0-.423-1.512C40.13-1.13 34.266 2.365 32.804 8.137a10.755 10.755 0 0 0-.33 2.68c.002.709.075 1.416.22 2.111L12.955 32.665a10.631 10.631 0 0 0-2.111-.22C4.872 32.446.03 37.289.03 43.262c0 5.972 4.842 10.814 10.815 10.814 5.972 0 10.814-4.842 10.814-10.815a10.605 10.605 0 0 0-.219-2.111l4.725-4.725 2.067 2.066a.902.902 0 0 0 1.274 0l.45-.45a1.01 1.01 0 1 1 1.431 1.428l-.451.451a.901.901 0 0 0 0 1.275l10.75 10.75a7.274 7.274 0 1 0 10.287-10.286l-10.75-10.75a.901.901 0 0 0-1.275 0l-.45.45a1.014 1.014 0 0 1-1.43 0 1.01 1.01 0 0 1-.002-1.427l.002-.002.45-.451a.901.901 0 0 0 0-1.274l-2.066-2.067 4.725-4.725c.695.144 1.402.217 2.112.22z"/></g><g><path fill="#1b1b1b" d="M46.627 45.322l-1.275 1.275-9.012-9.012 1.274-1.275z"/></g></g></g></svg>