<svg xmlns="http://www.w3.org/2000/svg" width="55" height="60" viewBox="0 0 55 60"><g><g><g><path fill="#1b1b1b" d="M32.903 7.175l4.438 4.438h-4.438zm-30.968.131a1.5 1.5 0 0 1 1.5-1.5h27.533v6.775c0 .535.432.967.967.967h6.775v7.742h1.935v-8.71c0-.267-.109-.51-.284-.685l-7.74-7.739a.967.967 0 0 0-.686-.285H5.806V1.935h35.275a1.5 1.5 0 0 1 1.5 1.5v19.79h1.935V2.969C44.516 1 43.516 0 41.548 0H5.838c-.967 0-1.967 1-1.967 1.968V3.87h-.903C.968 3.871 0 4.986 0 6.839v52.193c0 .536.432.968.968.968H33.87v-1.935H1.935z"/></g><g><path fill="#1b1b1b" d="M52.257 45.67a8.725 8.725 0 0 1-4.39 7.562l-8.19 4.683-8.193-4.682a8.729 8.729 0 0 1-4.389-7.563V30.964h.49c4.618 0 8.979-1.918 12.091-5.294a16.403 16.403 0 0 0 12.091 5.294h.49zm.968-16.641h-1.458a14.477 14.477 0 0 1-11.151-5.222l-.196-.235c-.366-.443-1.12-.443-1.487 0l-.196.234a14.478 14.478 0 0 1-11.152 5.223h-1.457a.967.967 0 0 0-.968.968V45.67c0 3.811 2.056 7.353 5.364 9.243l8.672 4.956a.966.966 0 0 0 .96 0l8.672-4.956a10.668 10.668 0 0 0 5.364-9.243V29.997a.967.967 0 0 0-.967-.968z"/></g><g><path fill="#1b1b1b" d="M39.67 51.285c-4.8 0-8.705-3.905-8.705-8.705 0-4.8 3.905-8.705 8.705-8.705 4.8 0 8.705 3.905 8.705 8.705 0 4.8-3.905 8.705-8.705 8.705zm.005-19.345c-5.87 0-10.645 4.776-10.645 10.645 0 5.87 4.776 10.645 10.645 10.645 5.87 0 10.645-4.776 10.645-10.645 0-5.87-4.776-10.645-10.645-10.645z"/></g><g><path fill="#1b1b1b" d="M39.216 45.585l-1.758-1.757-1.368 1.368 2.903 2.903a.965.965 0 0 0 .92.255.971.971 0 0 0 .692-.66l2.903-9.678-1.854-.556z"/></g><g><path fill="#1b1b1b" d="M3.87 18.48h25.161v1.935H3.87z"/></g><g><path fill="#1b1b1b" d="M3.87 22.35h25.161v1.935H3.87z"/></g><g><path fill="#1b1b1b" d="M3.87 29.45h17v1.935h-17z"/></g><g><path fill="#1b1b1b" d="M3.87 33.32h17v1.935h-17z"/></g><g><path fill="#1b1b1b" d="M4 37h17v1.935H4z"/></g><g><path fill="#1b1b1b" d="M4.84 7.74h1.935v1.935H4.84z"/></g><g><path fill="#1b1b1b" d="M8.71 7.74h1.935v1.935H8.71z"/></g><g><path fill="#1b1b1b" d="M12.58 7.74h1.935v1.935H12.58z"/></g><g><path fill="#1b1b1b" d="M16.45 7.74h12.58v1.935H16.45z"/></g></g></g></svg>