<svg xmlns="http://www.w3.org/2000/svg" width="17" height="13" viewBox="0 0 17 13"><g><g><g><path fill="#00b0f0" d="M15.502 0H1.49c-.23 0-.445.057-.64.15l7.613 7.613 1.706-1.64L16.142.15a1.477 1.477 0 0 0-.64-.15z"/></g><g><path fill="#00b0f0" d="M16.85.85l-5.62 5.62 5.62 5.62c.094-.194.15-.41.15-.64V1.49c0-.23-.056-.445-.15-.64z"/></g><g><path fill="#00b0f0" d="M.15.85c-.093.195-.15.41-.15.64v9.961c0 .23.056.445.15.64l5.62-5.62z"/></g><g><path fill="#00b0f0" d="M10.522 7.18L8.815 8.82a.496.496 0 0 1-.704 0L6.47 7.18.85 12.8c.195.094.41.15.64.15h14.012c.23 0 .445-.056.64-.15z"/></g></g></g></svg>