<?xml version="1.0" encoding="utf-8"?>
<!-- Generator: Adobe Illustrator 23.0.3, SVG Export Plug-In . SVG Version: 6.00 Build 0)  -->
<svg version="1.1" id="Слой_1" xmlns="http://www.w3.org/2000/svg" xmlns:xlink="http://www.w3.org/1999/xlink" x="0px" y="0px"
	 viewBox="0 0 65.8 59.9" style="enable-background:new 0 0 65.8 59.9;" xml:space="preserve">
<style type="text/css">
	.st0{fill:#313131;}
	.st1{fill:#00B0F0;}
</style>
<path class="st0" d="M58,0H33c-4.3,0-8,3.5-8,7.8v11H7.9c-4.3,0-7.9,3.6-7.9,7.9v18.4c0,4.3,3.6,7.8,7.9,7.8h23l7.2,6.6
	c0.3,0.3,0.7,0.4,1.1,0.4c0.2,0,0.4,0,0.6-0.1c0.6-0.3,1-0.8,1-1.5V39.1c0-0.9-0.7-1.6-1.6-1.6c-0.9,0-1.6,0.7-1.6,1.6v15.5
	l-4.9-4.5c-0.3-0.3-0.7-0.5-1.1-0.5H7.9c-2.5,0-4.7-2-4.7-4.6V26.8c0-2.5,2.1-4.6,4.7-4.6H25v17.3c0,0.6,0.4,1.2,1,1.5
	c0.6,0.3,1.3,0.1,1.8-0.3l6-5.5c0.2-0.1,0.3-0.3,0.4-0.4c0.3-0.3,0.7-0.6,0.8-0.7c0.1,0,0.5,0,0.8,0c0.3,0,0.6,0,1,0H58
	c4.3,0,7.8-3.5,7.8-7.9V7.8C65.8,3.5,62.3,0,58,0z M62.5,26.2c0,2.5-2,4.6-4.6,4.6H36.8c-0.4,0-0.7,0-1,0c-2,0-2.3,0.2-3.8,1.6
	c-0.1,0.1-0.3,0.2-0.4,0.4l-3.3,3V20.5V7.8c0-2.5,2.1-4.6,4.7-4.6h25c2.5,0,4.6,2,4.6,4.6V26.2z"/>
<path class="st1" d="M45.1,22.5c-0.9,0-1.6,0.7-1.6,1.6v0c0,0.9,0.7,1.6,1.6,1.6s1.6-0.7,1.6-1.6C46.7,23.3,46,22.5,45.1,22.5z"/>
<path class="st1" d="M12.2,33.9c-0.9,0-1.6,0.7-1.6,1.6s0.7,1.6,1.6,1.6h0.1c0.9,0,1.6-0.7,1.6-1.6s-0.7-1.6-1.6-1.6H12.2z"/>
<path class="st1" d="M17.9,33.9c-0.9,0-1.6,0.7-1.6,1.6s0.7,1.6,1.6,1.6H18c0.9,0,1.6-0.7,1.6-1.6s-0.7-1.6-1.6-1.6H17.9z"/>
<path class="st1" d="M50.3,14.1c0,2-1.5,3.2-2.5,4.1c-0.4,0.3-1.1,1-1.1,1.2c0,0.9-0.7,1.6-1.6,1.6c0,0,0,0,0,0
	c-0.9,0-1.6-0.7-1.6-1.6c0-1.8,1.3-2.8,2.3-3.7c0.8-0.7,1.3-1.2,1.3-1.6c0-0.9-0.7-1.6-1.6-1.6c-0.9,0-1.6,0.7-1.6,1.6
	c0,0.9-0.7,1.6-1.6,1.6s-1.6-0.7-1.6-1.6c0-2.7,2.2-4.9,4.9-4.9C48.2,9.3,50.3,11.4,50.3,14.1z"/>
</svg>
