<svg xmlns="http://www.w3.org/2000/svg" width="40px" height="50px">
    <path fill="#313131"
          d="M33.039 40.448a2.272 2.272 0 0 1-2.276 2.263H6.006a2.272 2.272 0 0 1-2.275-2.263V23.063a2.272 2.272 0 0 1 2.275-2.264h24.757a2.272 2.272 0 0 1 2.276 2.264zM11.198 12.696c0-4.34 1.767-8.98 6.725-8.98h.924c6.07 0 6.725 6.28 6.725 8.98v5.377H11.198zm19.565 5.387h-2.46v-5.38C28.302 5.484 24.678 1 18.846 1h-.924c-5.744 0-9.456 4.594-9.456 11.703v5.38h-2.46C3.245 18.083 1 20.317 1 23.063v17.385c0 2.745 2.246 4.98 5.006 4.98h24.757c2.76 0 5.006-2.235 5.006-4.98V23.063c0-2.746-2.245-4.98-5.006-4.98z"/>
    <path fill="none" stroke="#fff" stroke-miterlimit="50" stroke-width=".5"
          d="M33.039 40.448a2.272 2.272 0 0 1-2.276 2.263H6.006a2.272 2.272 0 0 1-2.275-2.263V23.063a2.272 2.272 0 0 1 2.275-2.264h24.757a2.272 2.272 0 0 1 2.276 2.264zM11.198 12.696c0-4.34 1.767-8.98 6.725-8.98h.924c6.07 0 6.725 6.28 6.725 8.98v5.377H11.198zm19.565 5.387h-2.46v-5.38C28.302 5.484 24.678 1 18.846 1h-.924c-5.744 0-9.456 4.594-9.456 11.703v5.38h-2.46C3.245 18.083 1 20.317 1 23.063v17.385c0 2.745 2.246 4.98 5.006 4.98h24.757c2.76 0 5.006-2.235 5.006-4.98V23.063c0-2.746-2.245-4.98-5.006-4.98z"/>
    <path fill="#00b0f0"
          d="M14.406 29.002a1.806 1.806 0 1 0 0-3.612 1.806 1.806 0 0 0 0 3.612zM22.896 29.002a1.806 1.806 0 1 0 0-3.612 1.806 1.806 0 0 0 0 3.612z"/>
    <g>
        <path fill="#00b0f0"
              d="M26.503 33.868a9.484 9.484 0 0 1-15.763 0 .948.948 0 1 1 1.575-1.052 7.587 7.587 0 0 0 12.614 0 .948.948 0 1 1 1.574 1.052z"/>
    </g>
</svg>