<svg xmlns="http://www.w3.org/2000/svg" width="40px" height="50px">
    <path fill="#313131"
          d="M4.32 28.33a1.12 1.12 0 0 0 0 2.24h34.317a1.121 1.121 0 0 0 0-2.24zM25.11 2.26L.607 25.13a1.119 1.119 0 1 0 1.528 1.637L26.64 3.899c.453-.422.477-1.13.054-1.582a1.119 1.119 0 0 0-1.582-.056z"/>
    <path fill="#00b0f0"
          d="M13.543.206L17 .001a.893.893 0 0 1 .35.052.8.8 0 0 1 .29.187c.159.159.24.346.244.56a.724.724 0 0 1-.224.55.903.903 0 0 1-.639.262h-.886l2.91 2.91a.812.812 0 0 1 .25.59.807.807 0 0 1-.253.593.805.805 0 0 1-.59.249.808.808 0 0 1-.59-.249l-2.91-2.91-.067.954c-.005.13-.027.246-.068.35a.775.775 0 0 1-.169.263.65.65 0 0 1-.522.186.815.815 0 0 1-.546-.248.825.825 0 0 1-.238-.64zM28.27 14.926l-3.454.205a.88.88 0 0 1-.351-.052.817.817 0 0 1-.29-.186.792.792 0 0 1-.245-.56.726.726 0 0 1 .225-.55.909.909 0 0 1 .638-.262h.886l-2.909-2.91a.814.814 0 0 1-.25-.59c0-.226.083-.424.253-.593a.799.799 0 0 1 .59-.248c.228 0 .425.083.59.248l2.91 2.91.067-.952c.004-.13.027-.247.068-.351a.76.76 0 0 1 .169-.262.65.65 0 0 1 .521-.186.818.818 0 0 1 .547.247.825.825 0 0 1 .238.64z"/>
</svg>